<?xml version="1.0" encoding="utf-8"?>
<!-- Generator: Adobe Illustrator 21.1.0, SVG Export Plug-In . SVG Version: 6.00 Build 0)  -->
<svg version="1.1" id="圖層_1" xmlns="http://www.w3.org/2000/svg" xmlns:xlink="http://www.w3.org/1999/xlink" x="0px" y="0px"
	 viewBox="0 0 22.5 23" style="enable-background:new 0 0 22.5 23;" xml:space="preserve">
<style type="text/css">
	.st0{fill:url(#SVGID_1_);}
</style>
<linearGradient id="SVGID_1_" gradientUnits="userSpaceOnUse" x1="11.25" y1="23" x2="11.25" y2="-9.094947e-13">
	<stop  offset="0" style="stop-color:#FFE18B"/>
	<stop  offset="1.327336e-02" style="stop-color:#FCDB82"/>
	<stop  offset="6.007217e-02" style="stop-color:#F4C967"/>
	<stop  offset="0.1138" style="stop-color:#EDBA51"/>
	<stop  offset="0.1766" style="stop-color:#E7AE40"/>
	<stop  offset="0.2543" style="stop-color:#E4A635"/>
	<stop  offset="0.3633" style="stop-color:#E2A12E"/>
	<stop  offset="0.6658" style="stop-color:#E1A02C"/>
	<stop  offset="0.698" style="stop-color:#E6AA3B"/>
	<stop  offset="0.7842" style="stop-color:#F1C25E"/>
	<stop  offset="0.8657" style="stop-color:#F9D377"/>
	<stop  offset="0.9398" style="stop-color:#FDDD86"/>
	<stop  offset="1" style="stop-color:#FFE18B"/>
</linearGradient>
<path class="st0" d="M22.5,2c0-1.1-0.8-2-2-2h-8.1c-0.4,0-0.8,0.1-1.2,0.4C10.9,0.1,10.5,0,10.1,0H2C0.9,0,0,0.9,0,2v8.1
	c0,0.5,0.2,1,0.6,1.4C0.2,11.9,0,12.4,0,12.9V21c0,1.1,0.9,2,2,2h8.1c0.4,0,0.8-0.1,1.2-0.4c0.3,0.2,0.7,0.4,1.2,0.4h8.1
	c1.1,0,2-0.9,2-2v-8.1c0-0.6-0.2-1.1-0.6-1.4c0.3-0.4,0.6-0.8,0.6-1.4V2z M12.4,2h8.1v8.1h-8.1V2z M2,2h8.1v8.1H2V2z M10.1,21H2
	v-8.1h8.1V21z M20.5,21h-8.1v-8.1h8.1V21z"/>
</svg>
