<?xml version="1.0" encoding="utf-8"?>
<!-- Generator: Adobe Illustrator 21.1.0, SVG Export Plug-In . SVG Version: 6.00 Build 0)  -->
<svg version="1.1" id="圖層_1" xmlns="http://www.w3.org/2000/svg" xmlns:xlink="http://www.w3.org/1999/xlink" x="0px" y="0px"
	 viewBox="0 0 16 14.2" style="enable-background:new 0 0 16 14.2;" xml:space="preserve">
<style type="text/css">
	.st0{fill:#5E3207;}
</style>
<g>
	<g>
		<path class="st0" d="M10.5,0c1,0.2,1.5,0.8,1.7,1.7c0.3,1.2,0.6,2.3,0.9,3.4c0,0.1,0.1,0.2,0.1,0.3c-0.2,0-0.3,0-0.5,0
			c-2.4,0-4.8,0-7.2,0c-1.3,0-2.4,0.5-3,1.6C2.4,7.5,2.4,7.9,2.3,8.4c0,0.3,0,0.5,0,0.9C1.8,9,1.5,8.7,1.3,8.3
			C1.1,7.9,1,7.4,0.9,6.9c-0.3-1-0.6-2-0.8-3c-0.3-1,0.3-1.8,1.4-2c2.8-0.6,5.6-1.2,8.4-1.8C9.9,0.1,10,0,10,0C10.2,0,10.4,0,10.5,0
			z M8.9,2.8C9,3.5,9.2,4.1,9.4,4.7c0.7-0.2,1.4-0.3,2.1-0.5C11.3,3.6,11.2,3,11,2.4C10.3,2.5,9.6,2.7,8.9,2.8z"/>
		<path class="st0" d="M5.2,14.2c-0.3-0.1-0.6-0.2-0.9-0.4c-0.5-0.3-0.7-0.7-0.7-1.3c0-1.5,0-2.9,0-4.4c0-0.9,0.8-1.6,1.9-1.6
			c2.9,0,5.8,0,8.6,0c0.9,0,1.6,0.5,1.8,1.3c0,0,0,0.1,0.1,0.1c0,1.6,0,3.2,0,4.9c-0.2,0.7-0.7,1.2-1.6,1.4
			C11.3,14.2,8.3,14.2,5.2,14.2z M4.6,10.4c0,0.7,0,1.3,0,2c0,0.8,0.3,1,1.1,1c2.4,0,4.8,0,7.3,0c0.4,0,0.8,0,1.2,0
			c0.5,0,0.8-0.3,0.8-0.8c0-0.3,0-0.5,0-0.8c0-0.5,0-0.9,0-1.4C11.5,10.4,8.1,10.4,4.6,10.4z M15,8.8c0.1-0.9-0.1-1.4-1.3-1.3
			c-1.9,0-3.9,0-5.8,0c-0.8,0-1.6,0-2.4,0C5,7.4,4.7,7.7,4.6,8c0,0.2,0,0.5,0,0.7C8.1,8.8,11.5,8.8,15,8.8z"/>
	</g>
</g>
</svg>
