<?xml version="1.0" encoding="utf-8"?>
<!-- Generator: Adobe Illustrator 21.1.0, SVG Export Plug-In . SVG Version: 6.00 Build 0)  -->
<svg version="1.1" id="圖層_1" xmlns="http://www.w3.org/2000/svg" xmlns:xlink="http://www.w3.org/1999/xlink" x="0px" y="0px"
	 viewBox="0 0 20 20" style="enable-background:new 0 0 20 20;" xml:space="preserve">
<style type="text/css">
	.st0{fill:#5E3207;}
</style>
<title>邀請會員SVG</title>
<path class="st0" d="M17,1.9c0.2,0.2,0.3,0.6,0.1,0.9c-0.1,0.3-0.3,0.6-0.4,0.9C16.6,4,16.3,4.1,16,4c-0.3-0.1-0.4-0.5-0.3-0.8
	c0,0,0,0,0,0c0.1-0.3,0.3-0.6,0.4-0.9c0.1-0.3,0.4-0.5,0.7-0.5L17,1.9z"/>
<path class="st0" d="M17.7,6.1c-0.2-0.1-0.4-0.3-0.4-0.6c0-0.2,0.1-0.4,0.3-0.5c0.5-0.2,1.1-0.4,1.6-0.6c0.3-0.1,0.6,0.1,0.7,0.4
	c0.1,0.3,0,0.6-0.3,0.7c-0.5,0.2-1,0.4-1.6,0.6C17.9,6.1,17.8,6.1,17.7,6.1z"/>
<path class="st0" d="M18.3,8.9l-0.5-0.2c-0.3-0.1-0.4-0.5-0.3-0.8c0.1-0.3,0.5-0.4,0.7-0.3l1.1,0.5c0.3,0.1,0.4,0.5,0.3,0.8
	c-0.1,0.3-0.5,0.4-0.8,0.3L18.3,8.9z"/>
<path class="st0" d="M17.3,10.7c-0.5-1.4-1-2.7-1.6-4.1L14,2c-0.2-0.6-0.6-1-1.2-1.1c-0.9-0.3-1.9,0.3-2.1,1.2
	c-0.1,0.2-0.1,0.5,0,0.7c0,0.1,0,0.1-0.1,0.2C10,3.9,9.2,4.7,8.4,5.4C7.3,6.3,6,7,4.6,7.5C3.5,8,2.3,8.4,1.2,8.9
	c-0.9,0.3-1.4,1.3-1,2.2c0,0,0,0,0,0C0.4,12,0.7,12.7,1,13.5c0.3,0.9,1.3,1.3,2.2,1c0,0,0,0,0,0c0.2-0.1,0.3-0.1,0.5-0.2l0.6,1.6
	c0.3,0.8,0.6,1.6,0.9,2.4c0.4,0.9,1.4,1.3,2.2,0.9c0.1-0.1,0.3-0.1,0.4-0.2c0.6-0.5,0.8-1.3,0.6-2c-0.2-0.6-0.4-1.1-0.7-1.7L8.3,15
	c0.9-0.3,1.4-1.4,1-2.3c0,0,0-0.1,0-0.1c0-0.1-0.1-0.2-0.1-0.3c1.6-0.3,3.3-0.3,4.9,0.1c0.1,0,0.1,0.1,0.2,0.1
	c0.5,0.6,1.3,0.8,2,0.6C17.2,12.7,17.7,11.7,17.3,10.7C17.3,10.7,17.3,10.7,17.3,10.7z M2.9,13.3c-0.3,0.2-0.6,0.1-0.8-0.2
	c0-0.1-0.1-0.1-0.1-0.2c-0.3-0.7-0.5-1.3-0.8-2c-0.2-0.3-0.1-0.7,0.2-0.8c0,0,0.1,0,0.2-0.1l3.5-1.4h0.2l1.3,3.3L6.4,12L2.9,13.3z
	 M7.3,17.8C7.2,18,6.9,18,6.7,18c-0.2,0-0.3-0.2-0.4-0.4c-0.5-1.3-1-2.6-1.5-3.9l0.2-0.1l0.8-0.3c0,0,0,0.1,0.1,0.1
	c0.5,1.2,0.9,2.5,1.4,3.7C7.5,17.4,7.5,17.6,7.3,17.8z M7.5,14c-0.1-0.4-0.3-0.7-0.4-1.1l1-0.4C8.5,13.4,8.5,13.7,7.5,14z M7.7,11.4
	c-0.4-1.1-0.8-2.2-1.3-3.4c1.8-0.9,3.4-2.2,4.6-3.8l2.6,6.7C11.7,10.7,9.6,10.8,7.7,11.4z"/>
<path class="st0" d="M4.6,10.3c0.2,0.1,0.3,0.3,0.3,0.6c0,0.2-0.1,0.5-0.3,0.6c-0.4,0.2-0.8,0.3-1.2,0.5c-0.3,0.1-0.6-0.1-0.7-0.3
	c-0.1-0.3,0-0.6,0.3-0.8c0.4-0.2,0.8-0.3,1.2-0.5C4.3,10.2,4.4,10.2,4.6,10.3z"/>
</svg>
