<?xml version="1.0" encoding="utf-8"?>
<!-- Generator: Adobe Illustrator 21.1.0, SVG Export Plug-In . SVG Version: 6.00 Build 0)  -->
<svg version="1.1" id="圖層_1" xmlns="http://www.w3.org/2000/svg" xmlns:xlink="http://www.w3.org/1999/xlink" x="0px" y="0px"
	 viewBox="0 0 20 20" style="enable-background:new 0 0 20 20;" xml:space="preserve">
<style type="text/css">
	.st0{fill:#5E3207;}
</style>
<title>dividend_ic</title>
<path class="st0" d="M19.9,16.8l-6.3-4.5l0.1-0.1c0.4-0.3,0.7-0.5,1.1-0.8c0.1-0.1,0.1-0.2,0.1-0.3c0-2.6,0-5.2,0-7.8
	c0-0.4-0.3-0.7-0.7-0.8c0,0-0.1,0-0.1,0H5.7C5.3,2.6,5,2.9,5,3.3c0,0,0,0,0,0c0,2.6,0,5.2,0,7.8c0,0.1,0.1,0.2,0.1,0.3
	c0.4,0.3,0.8,0.6,1.2,0.9L0,16.8v-0.3c0-2.7,0-5.3,0-8c0-0.8,0.3-1.5,0.9-1.9l2.4-1.8c0.1-0.1,0.2-0.2,0.2-0.3c0-0.5,0-1,0-1.5
	c0.1-1.1,1.1-1.9,2.2-1.9h8.4c1.2,0,2.2,0.9,2.2,2.1c0,0.1,0,0.1,0,0.2c0,0.4,0,0.8,0,1.1c0,0.2,0.1,0.3,0.2,0.4
	C17.3,5.4,18,6,18.8,6.6c0.7,0.5,1.1,1.2,1,2.1c0,2.6,0,5.2,0,7.9L19.9,16.8z M3.5,6.6L1.8,7.8C1.5,8,1.3,8.4,1.5,8.7
	C1.6,8.8,1.7,8.9,1.8,9l1.6,1.1l0.2,0.1L3.5,6.6z M16.3,6.6v3.7c0.6-0.5,1.3-0.9,1.9-1.4c0.3-0.2,0.3-0.6,0.1-0.9
	c0-0.1-0.1-0.1-0.1-0.1C17.6,7.4,17,7,16.3,6.6L16.3,6.6z"/>
<path class="st0" d="M0.7,18.1l3-2.1l4.2-3c0.1-0.1,0.3-0.2,0.5-0.2h3.3c0.1,0,0.2,0,0.3,0.1l7.1,5.1l0.1,0.1
	c-0.3,0.3-0.7,0.5-1,0.5c-0.2,0-0.3,0-0.5,0H2.3C1.7,18.6,1.2,18.4,0.7,18.1z"/>
<path class="st0" d="M11.3,6.6c-0.1-0.1-0.3-0.1-0.4-0.2c-0.3-0.2-0.7-0.3-1.1-0.3c-0.2,0-0.3,0.1-0.4,0.2C9.2,6.4,9.2,6.5,9.2,6.6
	c0,0.1,0.1,0.1,0.2,0.1C9.7,6.8,9.9,6.9,10.2,7c0.3,0.1,0.6,0.2,0.8,0.3c0.7,0.3,1.1,0.9,1,1.6c0,0.7-0.5,1.4-1.2,1.6
	c-0.1,0-0.2,0.1-0.3,0.3c-0.1,0.4-0.4,0.6-0.8,0.5c-0.3-0.1-0.5-0.3-0.5-0.5c0-0.2-0.1-0.2-0.3-0.3c-0.3-0.1-0.6-0.2-0.9-0.4
	c-0.3-0.2-0.5-0.6-0.3-1c0,0,0,0,0,0C8,8.8,8.5,8.7,8.8,8.9c0,0,0,0,0.1,0C9.2,9.2,9.6,9.3,10,9.3c0.2,0,0.3-0.1,0.4-0.1
	c0.1-0.1,0.2-0.2,0.1-0.3c0-0.1-0.1-0.1-0.2-0.1c-0.3-0.1-0.5-0.2-0.8-0.2C9.3,8.3,9,8.1,8.8,8C7.9,7.6,7.5,6.6,7.9,5.7
	C8.1,5.4,8.3,5.2,8.5,5c0.1-0.1,0.2-0.1,0.3-0.2C9,4.8,9.3,4.6,9.3,4.3C9.5,4.1,9.7,3.9,10,4c0.3,0,0.5,0.2,0.6,0.5
	c0,0.2,0.1,0.2,0.3,0.3c0.3,0.1,0.6,0.3,0.9,0.4C12,5.4,12.1,5.8,12,6.1C11.9,6.4,11.6,6.6,11.3,6.6z"/>
</svg>
