<?xml version="1.0" encoding="utf-8"?>
<!-- Generator: Adobe Illustrator 21.1.0, SVG Export Plug-In . SVG Version: 6.00 Build 0)  -->
<svg version="1.1" id="圖層_1" xmlns="http://www.w3.org/2000/svg" xmlns:xlink="http://www.w3.org/1999/xlink" x="0px" y="0px"
	 viewBox="0 0 42.9 42.9" style="enable-background:new 0 0 42.9 42.9;" xml:space="preserve">
<style type="text/css">
	.st0{fill:#6A4119;}
</style>
<title>註冊</title>
<g id="圖層_6">
	<path class="st0" d="M21.5,21c3.7,0,6.7-3,6.7-6.7c0-1.8-0.7-3.5-2-4.7c-2.6-2.6-6.8-2.6-9.4,0c0,0,0,0,0,0c-1.3,1.2-2,2.9-2,4.7
		C14.8,18,17.7,21,21.5,21C21.4,21,21.4,21,21.5,21z M17.9,10.7c2-2,5.2-2,7.1,0c1,0.9,1.5,2.2,1.5,3.6c0,2.8-2.2,5-5,5s-5-2.2-5-5
		C16.5,13,17,11.7,17.9,10.7z"/>
	<path class="st0" d="M32.9,28.9c0-0.6-0.1-1.2-0.2-1.8c-0.1-0.6-0.2-1.2-0.4-1.8c-0.2-0.6-0.4-1.1-0.7-1.6c-0.3-0.5-0.7-1-1.1-1.4
		c-0.4-0.4-1-0.8-1.6-1c-0.6-0.2-1.3-0.4-2-0.4c-0.4,0-0.8,0.2-1.1,0.5c-0.3,0.2-0.7,0.5-1.1,0.7c-0.5,0.3-0.9,0.5-1.5,0.6
		c-1.2,0.4-2.4,0.4-3.6,0c-0.5-0.2-1-0.4-1.5-0.6c-0.4-0.3-0.8-0.5-1.1-0.7C16.8,21.2,16.4,21,16,21c-0.7,0-1.4,0.1-2,0.4
		c-0.6,0.2-1.1,0.6-1.6,1c-0.4,0.4-0.8,0.9-1.1,1.4c-0.3,0.5-0.5,1.1-0.7,1.6c-0.2,0.6-0.3,1.2-0.4,1.8c-0.1,0.6-0.2,1.2-0.2,1.7
		c0,0.5-0.1,1.1-0.1,1.6c-0.1,1.3,0.4,2.6,1.4,3.5c1,0.9,2.2,1.3,3.5,1.3h13.3c1.3,0.1,2.6-0.4,3.5-1.3c0.9-0.9,1.4-2.2,1.4-3.5
		C33,30,33,29.4,32.9,28.9z M30.5,32.8c-0.7,0.6-1.5,0.9-2.4,0.8H14.8c-0.9,0.1-1.7-0.2-2.4-0.8c-0.6-0.6-0.9-1.4-0.9-2.3
		c0-0.5,0-1,0-1.5c0-0.5,0.1-1.1,0.2-1.6c0.1-0.5,0.2-1,0.4-1.5c0.1-0.5,0.3-0.9,0.6-1.3c0.2-0.4,0.5-0.7,0.8-1
		c0.3-0.3,0.6-0.5,1-0.6c0.4-0.2,0.8-0.2,1.3-0.2c0.1,0.1,0.2,0.1,0.3,0.2l1.1,0.7c0.6,0.3,1.2,0.6,1.8,0.8c1.5,0.5,3.1,0.5,4.6,0
		c0.6-0.2,1.3-0.5,1.8-0.8l1.1-0.7c0.1-0.1,0.2-0.1,0.3-0.2c0.4,0,0.9,0.1,1.3,0.2c0.4,0.1,0.7,0.4,1,0.6c0.3,0.3,0.6,0.6,0.8,1
		c0.2,0.4,0.4,0.9,0.6,1.3c0.2,0.5,0.3,1,0.4,1.5c0.1,0.5,0.2,1,0.2,1.6l0,0c0,0.5,0,1,0,1.5C31.3,31.4,31.1,32.2,30.5,32.8z"/>
	<path class="st0" d="M21.5,42.9C9.6,42.9,0,33.3,0,21.5S9.6,0,21.5,0s21.5,9.6,21.5,21.5C42.9,33.3,33.3,42.9,21.5,42.9z M21.5,1.5
		c-11,0-20,9-20,20s9,20,20,20s20-9,20-20S32.5,1.5,21.5,1.5z"/>
</g>
</svg>
